<?xml version="1.0" encoding="utf-8"?>
<!-- Generator: Adobe Illustrator 25.1.0, SVG Export Plug-In . SVG Version: 6.00 Build 0)  -->
<svg version="1.1" id="Layer_5" xmlns="http://www.w3.org/2000/svg" xmlns:xlink="http://www.w3.org/1999/xlink" x="0px" y="0px"
	 viewBox="0 0 512 512" style="enable-background:new 0 0 512 512;" xml:space="preserve">
<style type="text/css">
	.st0{fill:#1ABC9C;}
</style>
<path class="st0" d="M488,408V292.8c0-12.3-4.1-23.9-11.3-33.2c7.2-7.5,11.3-17.3,11.3-27.6c0-10.7-4.2-20.7-11.7-28.3
	c-13.1-13.1-20.3-29.1-20.3-45V132c0-41.9-34.1-76.1-76.1-76.1h-7.9c-41.9,0-76.1,34.1-76.1,76.1v26.6c0,16-7.2,31.9-20.3,45
	c-7.6,7.6-11.7,17.6-11.7,28.3c0,10.3,4.1,20.2,11.3,27.6c-7.2,9.3-11.3,20.9-11.3,33.2V408h-16V292.8c0-20.8-11.6-39.5-30.2-48.8
	c-4.9-2.4-10.1-4.1-15.4-5l-34.4-5.7v-13.6c7.9-7.1,13.4-16.7,15.3-27.6h8.7c13.2,0,24-10.8,24-24c0-5.7-2.1-10.9-5.4-15
	c3.5-7.2,5.4-15,5.4-23.1V128c0-16-11.9-29.3-27.3-31.7l-5.2-8.7C171.8,68.1,150.4,56,127.7,56c-17.4,0-33.8,6.8-46,19.1l-5,5
	C63.3,93.4,56,111,56,129.8c0,8.1,1.9,16,5.4,23.1c-3.3,4.1-5.4,9.3-5.4,15c0,13.2,10.8,24,24,24h8.7c1.9,10.9,7.4,20.5,15.3,27.6
	v13.6L69.6,239c-5.4,0.9-10.6,2.6-15.4,5C35.6,253.3,24,272,24,292.8V408c-8.8,0-16,7.2-16,16v16c0,8.8,7.2,16,16,16h464
	c8.8,0,16-7.2,16-16v-16C504,415.2,496.8,408,488,408z M287,215c16.1-16.1,25-36.1,25-56.3V132c0-33.1,26.9-60.1,60.1-60.1h7.9
	c33.1,0,60.1,26.9,60.1,60.1v26.6c0,20.2,8.9,40.2,25,56.3c4.5,4.5,7,10.6,7,17c0,6-2.4,11.6-6.9,16.4c-2.3-1.6-4.7-3.1-7.2-4.4
	c-4.9-2.4-10.1-4.1-15.4-5l-34.4-5.7v-13.6c9.8-8.8,16-21.5,16-35.7v-40h-9.4c-12.5,0-24.2-4.8-33-13.7l-5.7-5.7l-5.7,5.7
	c-8.8,8.8-20.5,13.7-33,13.7H328v40c0,14.2,6.2,26.9,16,35.7v13.6l-34.4,5.7c-5.4,0.9-10.6,2.6-15.4,5c-2.6,1.3-5,2.8-7.3,4.4
	c-4.3-4.5-6.9-10.3-6.9-16.5C280,225.5,282.5,219.5,287,215z M376,215.9c-17.7,0-32-14.3-32-32v-24.3c11.7-1.2,22.7-5.7,32-13
	c9.3,7.3,20.3,11.8,32,13v24.3C408,201.6,393.7,215.9,376,215.9z M392,229.1V248c0,8.8-7.2,16-16,16s-16-7.2-16-16v-18.9
	c5,1.8,10.4,2.8,16,2.8S387,230.9,392,229.1z M280,292.8c0-14.7,8.2-27.9,21.3-34.5c3.5-1.7,7.1-2.9,10.9-3.5l31.9-5.3
	c0.8,17,14.7,30.6,31.9,30.6s31.1-13.6,31.9-30.6l31.9,5.3c3.8,0.6,7.5,1.8,10.9,3.5c13.1,6.6,21.3,19.8,21.3,34.5V408h-24.2
	c5.1-6.7,8.2-15,8.2-24v-64c0-13.2-10.8-24-24-24H320c-13.2,0-24,10.8-24,24v64c0,9,3.1,17.3,8.2,24H280V292.8z M312,376v-56
	c0-4.4,3.6-8,8-8h112c4.4,0,8,3.6,8,8v56H312z M438.5,392c-3.3,9.3-12.1,16-22.5,16h-80c-10.4,0-19.2-6.7-22.5-16H438.5z M168,183.9
	c0,4-0.7,7.9-2.1,11.4c-2.6,6.9-7.6,12.7-14,16.3c-4.7,2.7-10.1,4.3-15.9,4.3c-5.6,0-10.9-1.5-15.5-4c-6.4-3.5-11.4-9.2-14.2-16
	c-1.5-3.7-2.3-7.7-2.3-12v-24.3c11.7-1.2,22.7-5.7,32-13c9.3,7.3,20.3,11.8,32,13V183.9z M151.9,229.2v19.2c0,8.7-7,15.7-15.7,15.7
	c-8.7,0-15.7-7-15.7-15.7v-19.1c4.9,1.7,10.1,2.6,15.5,2.6C141.6,231.9,146.9,230.9,151.9,229.2z M192,176h-8v-16h8c4.4,0,8,3.6,8,8
	S196.4,176,192,176z M88,176h-8c-4.4,0-8-3.6-8-8s3.6-8,8-8h8V176z M97.4,143.9H88v0.1h-8c-1.7,0-3.3,0.2-4.9,0.5
	c-2-4.6-3.1-9.6-3.1-14.7c0-14.5,5.7-28.2,15.9-38.5l5-5c9.3-9.3,21.6-14.4,34.7-14.4c17.2,0,33.3,9.1,42.1,23.8l9.7,16.2h4.5
	c8.8,0,16,7.2,16,16v1.8c0,5.1-1.1,10.1-3.1,14.7c-1.6-0.3-3.2-0.5-4.9-0.5h-8v-0.1h-9.4c-12.5,0-24.2-4.8-33-13.7l-5.7-5.7
	l-5.7,5.7C121.5,139.1,109.8,143.9,97.4,143.9z M40,292.8c0-14.7,8.2-27.9,21.3-34.5c3.5-1.7,7.1-2.9,10.9-3.5l32.4-4.3
	c1,16.5,14.9,29.7,31.6,29.7c8.7,0,16.6-3.6,22.4-9.3c5.3-5.3,8.7-12.4,9.2-20.3l31.9,4.3c3.8,0.6,7.4,1.8,10.9,3.5
	c13.2,6.6,21.3,19.8,21.3,34.5V408h-24.2c5.1-6.7,8.2-15,8.2-24v-64c0-13.2-10.8-24-24-24H80c-13.2,0-24,10.8-24,24v64
	c0,9,3.1,17.3,8.2,24H40V292.8z M72,376v-56c0-4.4,3.6-8,8-8h112c4.4,0,8,3.6,8,8v56H72z M198.5,392c-3.3,9.3-12.1,16-22.5,16H96
	c-10.4,0-19.2-6.7-22.5-16H198.5z M24,440v-16h464l0,16H24z"/>
</svg>
