<?xml version="1.0" encoding="utf-8"?>
<!-- Generator: Adobe Illustrator 25.1.0, SVG Export Plug-In . SVG Version: 6.00 Build 0)  -->
<svg version="1.1" xmlns="http://www.w3.org/2000/svg" xmlns:xlink="http://www.w3.org/1999/xlink" x="0px" y="0px"
	 viewBox="0 0 3361.4 2240.9" style="enable-background:new 0 0 3361.4 2240.9;" xml:space="preserve">
<style type="text/css">
	.st0{display:none;}
	.st1{display:inline;fill:#FFFFFF;}
	.st2{opacity:0.5;fill:#CBF7EE;}
	.st3{fill:#7DC6BA;}
	.st4{fill:#DCE5FE;}
	.st5{fill:#9FD3C9;}
	.st6{fill:#BDF5F9;}
	.st7{fill:url(#SVGID_1_);}
	.st8{fill:#39AAA4;}
	.st9{fill:#00C9AC;}
	.st10{fill:url(#SVGID_2_);}
	.st11{fill:url(#SVGID_3_);}
	.st12{fill:#0E7564;}
	.st13{fill:#BDF9F3;}
	.st14{fill:#0E8974;}
	.st15{fill:#CBF7EE;}
	.st16{fill:#07938F;}
	.st17{fill:#8BBCB2;}
	.st18{fill:#C3EDE2;}
	.st19{fill:#00000F;}
	.st20{fill:#F6CBCF;}
	.st21{fill:#1A1E33;}
	.st22{fill:#0893A5;}
	.st23{fill:#00B3C6;}
	.st24{fill:#FFFFFF;}
	.st25{fill:#6EE2E5;}
	.st26{fill:#101537;}
	.st27{fill:url(#SVGID_4_);}
	.st28{fill-rule:evenodd;clip-rule:evenodd;fill:#F6CBCF;}
	.st29{fill-rule:evenodd;clip-rule:evenodd;fill:#00000F;}
	.st30{fill-rule:evenodd;clip-rule:evenodd;fill:#101537;}
	.st31{fill-rule:evenodd;clip-rule:evenodd;fill:#0893A5;}
	.st32{fill-rule:evenodd;clip-rule:evenodd;fill:#00B3C6;}
	.st33{fill-rule:evenodd;clip-rule:evenodd;fill:#1AD8E2;}
	.st34{fill-rule:evenodd;clip-rule:evenodd;fill:#E13C83;}
	.st35{fill-rule:evenodd;clip-rule:evenodd;fill:#0B7C7C;}
	.st36{fill-rule:evenodd;clip-rule:evenodd;fill:#FDDDB1;}
	.st37{fill-rule:evenodd;clip-rule:evenodd;fill:#F19FA8;}
</style>
<g id="Background" class="st0">
	<rect class="st1" width="2475" height="1650"/>
</g>
<g id="Illustration">
	<path class="st2" d="M3173.6,1070.2c31.9-118-11.2-253.7-109.5-330.7c-33.1-25.9-71.4-45.5-102.2-74
		c-73.8-68.1-49.7-161.8-108-233.8c-190.6-235.1-480.3-259.4-726.1-157.2c-192.2,80-396.8,92.8-604.9,59.4
		c-158-25.4-311-79-470.5-93.1c-125.5-11.1-261.6,2.2-352.5,94.9c-40.8,41.6-75.8,89.8-124.8,122.1c-58.9,38.8-133.3,51.3-191,91.8
		c-72.1,50.6-108,139.8-109.9,226.2c-1.9,86.4,26.1,170.8,60.9,250.3c31.1,71,68.5,142.6,69.5,219.8
		c1.4,108.2-68.2,203.1-122.6,297.6c-68.2,118.5-85.5,224.3-13.5,340.9c60.7,98.3,137,168.3,259.3,185.4
		c255.6,35.8,489.7-57.9,740.6-84.6c224-23.8,447.5,16.6,667.9,51.4c259.3,41,603.9,79.9,835.1-75.3
		c81.3-54.6,141.9-137.5,168.2-230c21.7-76.2,20.4-156.7,33.8-234.7c13.9-80.9,43.9-159.2,87.8-229.3
		c33.1-52.9,74.3-101.6,98.9-158.7C3165.6,1096.2,3170.1,1083.3,3173.6,1070.2z"/>
	<path class="st3" d="M693.9,252.1c-37,192.5-216.3,1314,589.2,1488.1c0,0,269-741-567.2-1501.6C708.6,232,696.3,239.5,693.9,252.1z
		"/>
	<path class="st4" d="M759.3,409.1c8,55,16.9,110,26.3,164.8C795,628.7,805,683.4,815.5,738c21,109.3,44.4,218,70.6,326.1
		c13.3,54,27.2,107.8,42.1,161.4c15.1,53.5,31.1,106.7,48.4,159.5c17.6,52.7,36.5,104.9,57.7,156.2c21.2,51.2,44.6,101.7,72.5,149.4
		c1.5,2.6,0.7,5.9-1.9,7.4c-2.6,1.5-5.9,0.7-7.4-1.9l0,0c-28.1-48.5-51.4-99.4-72.5-151.1c-21-51.7-39.8-104.2-57.2-157.2
		c-17.1-53-33-106.5-47.8-160.2c-14.7-53.7-28.4-107.7-41.4-161.9c-25.8-108.4-48.7-217.4-69.2-326.8
		c-10.3-54.7-20-109.5-29.2-164.4c-9.1-54.9-17.8-109.9-25.5-165.1c-0.2-1.3,0.7-2.4,2-2.6C757.9,406.9,759.1,407.8,759.3,409.1
		L759.3,409.1z"/>
	<path class="st5" d="M417.9,967.8c-0.2-10.4,13.7-14.2,18.7-5.1c49.1,87.9,185,314.5,334.9,416.1
		c244,165.4,455.2,478.3,374.2,686.1C1145.7,2064.9,444.4,2102.5,417.9,967.8z"/>
	<path class="st4" d="M472.6,1097c0.8,2.1,2,4.9,3.1,7.3l3.4,7.6l7,15.1l14.2,30.1c9.7,20,19.6,39.9,29.6,59.7
		c20.1,39.6,40.8,78.9,62.4,117.8c43.3,77.6,88.5,154.1,137.8,228c24.8,36.8,49.7,73.5,76.2,109.2c26.4,35.6,53.7,70.6,82.3,104.5
		c56.9,68,119,131.8,187.7,188.1c0.9,0.8,1.1,2.1,0.3,3.1c-0.7,0.9-2.1,1.1-3,0.4c-35.8-26.7-69.5-56-101.9-86.7
		c-32.2-31-62.5-63.7-92-97.3c-58.1-67.8-111.4-139.6-160.5-214.1c-24.6-37.2-48-75.2-70.8-113.5c-22.8-38.3-44.8-77.1-65.6-116.5
		c-20.9-39.4-41.2-79-60.4-119.3c-9.5-20.1-18.9-40.4-28-60.7c-4.5-10.2-9-20.4-13.4-30.6l-6.4-15.4l-3.1-7.8c-1-2.7-2-5.1-3-8.2
		c-0.4-1.1,0.3-2.3,1.4-2.7c1.1-0.3,2.3,0.2,2.7,1.3L472.6,1097z"/>
	<g>
		<g>
			<g>
				<path class="st6" d="M713.2,1904.1l484.3,0v-74.3l-484.3,0C723.6,1829.8,723.6,1904.1,713.2,1904.1z"/>
				<linearGradient id="SVGID_1_" gradientUnits="userSpaceOnUse" x1="652.9358" y1="1866.9458" x2="898.2379" y2="1866.9458">
					<stop  offset="0" style="stop-color:#00C9AC"/>
					<stop  offset="1" style="stop-color:#0C7277"/>
				</linearGradient>
				<path class="st7" d="M1197.5,1885.5v-34c0-12-9.6-21.7-21.4-21.7H715.3c-9.3,0-16.8-5.8-16.8-12.9c0-2.2,2.3-3.9,5.1-3.9h503.7
					c11.6,0,29.9,13.9,29.9,31.1v47.5c0,16.2-17.8,29.3-28.7,29.3H706.2c-4.3,0-7.8-2.7-7.8-5.9c0-6,6.3-10.9,14.2-10.9h466.6
					C1189.3,1904.1,1197.5,1895.8,1197.5,1885.5z"/>
			</g>
			<path class="st8" d="M1184.1,1846.4H730c-0.8,0-1.4-0.6-1.4-1.4c0-0.8,0.6-1.4,1.4-1.4h454.1c0.8,0,1.4,0.6,1.4,1.4
				C1185.5,1845.8,1184.9,1846.4,1184.1,1846.4z"/>
			<path class="st8" d="M1184.1,1857.4H730c-0.8,0-1.4-0.6-1.4-1.4s0.6-1.4,1.4-1.4h454.1c0.8,0,1.4,0.6,1.4,1.4
				S1184.9,1857.4,1184.1,1857.4z"/>
			<path class="st8" d="M1184.1,1868.5H730c-0.8,0-1.4-0.6-1.4-1.4c0-0.8,0.6-1.4,1.4-1.4h454.1c0.8,0,1.4,0.6,1.4,1.4
				C1185.5,1867.9,1184.9,1868.5,1184.1,1868.5z"/>
			<path class="st8" d="M1184.1,1879.5H730c-0.8,0-1.4-0.6-1.4-1.4c0-0.8,0.6-1.4,1.4-1.4h454.1c0.8,0,1.4,0.6,1.4,1.4
				C1185.5,1878.9,1184.9,1879.5,1184.1,1879.5z"/>
			<path class="st8" d="M1184.1,1890.5H730c-0.8,0-1.4-0.6-1.4-1.4c0-0.8,0.6-1.4,1.4-1.4h454.1c0.8,0,1.4,0.6,1.4,1.4
				C1185.5,1889.9,1184.9,1890.5,1184.1,1890.5z"/>
		</g>
		<g>
			<path class="st6" d="M1245.3,1929v25c0,4.3-2.5,8.4-6.9,11.2l-4.3,2.8c-3.5,2.3-2.8,6.5,1.4,8l0,0c2.8,1,3.3,3.8,1,5.3l-5.4,3.6
				c-3.5,2.4-3.6,6.5,0,8.9l3.9,2.6c3.4,2.2,3.3,6.2-0.2,8.3l-4.2,2.6c-2.9,1.8-3.4,5-1.1,7.2l2.3,2.3c1.6,1.6,2.5,3.6,2.5,5.6v39.5
				h-567v-135.3L1245.3,1929z"/>
			<path class="st8" d="M687,1957.9h538.4c1.2,0,2.1-0.7,2.1-1.6c0-0.9-1-1.6-2.1-1.6H687c-1.2,0-2.1,0.7-2.1,1.6
				C684.9,1957.2,685.9,1957.9,687,1957.9z"/>
			<path class="st8" d="M687,1981.5h525.6c1.2,0,2.1-0.7,2.1-1.6c0-0.9-0.9-1.6-2.1-1.6H687c-1.2,0-2.1,0.7-2.1,1.6
				C684.9,1980.8,685.9,1981.5,687,1981.5z"/>
			<path class="st8" d="M687,1998.8h519.1c1.2,0,2.1-0.7,2.1-1.6c0-0.9-0.9-1.6-2.1-1.6H687c-1.2,0-2.1,0.7-2.1,1.6
				C684.9,1998.1,685.9,1998.8,687,1998.8z"/>
			<path class="st8" d="M657.1,1917.9h600.6c4.6,0,8.7,2.5,9.1,5.9c0.5,3.9-3.6,7.2-8.7,7.2H701.2c-9.8,0-18.2,5.1-20.3,12.2
				c-9.1,32-8.4,65.3,0.2,99.6c2,8,11.3,13.7,22.2,13.7h543.4c4.6,0,8.7,2.5,9.1,5.9c0.5,3.9-3.6,7.2-8.7,7.2h-586
				c-14,0-26.1-7.5-28.6-17.7c-10.1-41.7-11-81.7,0-119.5c2.5-8.5,12.6-14.5,24.3-14.5H657.1z"/>
		</g>
	</g>
	<path class="st3" d="M2602.5,667.7c37.4,137.1,222.7,943.7-503,1253.6c0,0-258.7-499.7,482.8-1258.9
		C2588.8,655.8,2600,658.7,2602.5,667.7z"/>
	<path class="st4" d="M2550.6,800.7c-6.1,45-13.1,89.9-20.5,134.7c-7.4,44.8-15.3,89.5-23.8,134.1c-16.9,89.2-35.8,178.1-57.4,266.3
		c-21.7,88.2-46,175.8-75,262c-14.4,43.1-30.3,85.7-47.9,127.7c-17.6,41.9-36.9,83.3-59.5,123c-1.3,2.3-4.3,3.2-6.7,1.8
		c-2.3-1.3-3.2-4.3-1.8-6.7l0,0l0,0c22.5-39.1,41.9-80,59.6-121.6c17.7-41.6,33.8-84,48.3-126.9c29.4-85.7,54.1-173,76.2-261
		c22-88,41.4-176.6,58.7-265.7c8.7-44.5,16.8-89.1,24.5-133.9c7.6-44.7,14.9-89.5,21.2-134.4l0,0c0.2-1.1,1.2-1.9,2.3-1.8
		C2550,798.5,2550.7,799.6,2550.6,800.7z"/>
	<path class="st5" d="M2291,2059c0,0-17.8-162.8,124.3-348.5c131.8-172.3,458.7-573.6,519.2-780.2c2.7-9.1,15.9-8.3,17.2,1.2
		c14.2,101.3,30,357.7-112.3,633.2C2655.9,1920,2291,2059,2291,2059z"/>
	<path class="st4" d="M2899,1119.6c0,22.6-2.8,45.2-6.9,67.4c-0.5,2.8-0.9,5.6-1.5,8.4l-1.8,8.3l-3.6,16.6l-4.2,16.4
		c-1.5,5.5-2.7,11-4.5,16.4c-12.9,43.4-29.4,85.8-49.5,126.5c-4.6,10.4-10.3,20.2-15.6,30.2l-8,15c-1.4,2.5-2.6,5-4.1,7.4l-4.4,7.3
		l-17.5,29.1c-2.8,4.9-6.1,9.5-9.3,14.2l-9.5,14.1l-9.5,14.1l-4.8,7l-5.1,6.8l-20.4,27.2c-3.4,4.5-6.7,9.1-10.3,13.5l-10.6,13.2
		l-21.2,26.4l-21.5,26.2c-7.2,8.7-14.3,17.5-21.7,26.1c-14.5,17.3-29.2,34.5-44,51.6c-14.7,17.1-29.7,34-44.6,51l-45.2,50.5
		c-30.2,33.6-60.4,67.1-89.4,101.6c-7.4,8.5-14.3,17.4-21.4,26.1c-3.6,4.3-6.9,8.9-10.3,13.4c-3.4,4.5-6.8,8.9-10.1,13.5
		c-6.3,9.3-13,18.4-18.6,28.1l-4.4,7.2c-0.7,1.2-1.5,2.4-2.2,3.6l-2,3.7l-7.8,14.9l0,0.1c-0.3,0.6-1.1,0.8-1.7,0.5
		c-0.6-0.3-0.8-1-0.5-1.6c9.4-20.7,20.9-40.3,33.7-59c3.2-4.7,6.6-9.2,9.8-13.8c3.3-4.6,6.5-9.3,10.1-13.7
		c6.9-8.9,13.7-18,20.9-26.7l10.7-13.2c3.6-4.4,7.3-8.6,10.9-13l11-12.9l11.1-12.8c14.7-17.1,29.7-34.1,44.5-51.1
		c29.7-34,59.4-67.9,88.8-102.2c29.4-34.2,58.2-68.9,86.8-103.9l21.2-26.4l10.6-13.2c3.5-4.4,6.8-8.9,10.3-13.4l20.4-26.9l5.1-6.7
		l4.8-6.9l9.5-13.9c25.8-36.8,48.5-75.8,69.1-115.7c20.8-39.9,38-81.6,51.7-124.5c1.9-5.3,3.2-10.8,4.9-16.2l4.7-16.2l4.1-16.4
		l2-8.2c0.6-2.7,1.1-5.5,1.7-8.3c1.1-5.5,2.3-11,3.3-16.6l2.7-16.7c1.4-11.2,3-22.4,3.3-33.6c0-0.1,0.1-0.2,0.1-0.2
		C2898.9,1119.5,2899,1119.5,2899,1119.6z"/>
	<g>
		<path class="st9" d="M1134.1,302.4L2185,314c58.1,0.6,103.7,50.8,103.6,113.7l-0.9,1557.8c0,43.6-35.3,79.7-77.9,79.9l-1126.7,5
			c-39.8,0.2-72.4-33.1-72.4-73.9V435.3C1010.8,361.3,1066,301.7,1134.1,302.4z"/>
		<linearGradient id="SVGID_2_" gradientUnits="userSpaceOnUse" x1="1611.7416" y1="2036.5856" x2="1697.7633" y2="333.3718">
			<stop  offset="0" style="stop-color:#07938F"/>
			<stop  offset="1" style="stop-color:#2FC1A8"/>
		</linearGradient>
		<path class="st10" d="M2097.4,451.8H1214c-37,0-66.8,30.5-66.8,66.6V1804c0,36.1,29.8,64.1,66.8,64.1h883.3
			c37,0,67.4-28,67.4-64.1V518.4C2164.7,482.3,2134.4,451.8,2097.4,451.8z"/>
	</g>
	
		<linearGradient id="SVGID_3_" gradientUnits="userSpaceOnUse" x1="3733.8892" y1="1564.889" x2="3437.0825" y2="2029.4556" gradientTransform="matrix(0.9509 -0.3094 0.3094 0.9509 -1965.6456 225.7691)">
		<stop  offset="0" style="stop-color:#0C9992"/>
		<stop  offset="1" style="stop-color:#2CBDA6"/>
	</linearGradient>
	<path class="st11" d="M1975.2,208.7l-24.1,90.9c-3.3,12.3-1,25.5,6.1,36c18.1,26.5,62,74.2,154.2,97.7
		c93.7,23.9,146.2-2.5,168.7-19.7c8.2-6.2,14-15,16.8-24.9l26.4-96.3L1975.2,208.7z"/>
	<path class="st9" d="M2172.8,89.7l-260.6,76.3c-13.4,3.9-17,21.2-6.3,30.2c52.4,43.7,171.4,145.6,216.7,205
		c4.8,6.4,13.4,8.6,20.8,5.4l263.3-112.6c11.9-5.1,14.3-20.9,4.5-29.3c-51.9-44.5-183.8-155.7-226.5-174.3
		C2180.9,88.8,2176.7,88.6,2172.8,89.7z"/>
	<path class="st12" d="M2168.7,224.9c0,0,140.4,86.3,151.3,106.2c10.9,20-9.4,111.5-9.4,111.5c22.9,77,27.1,160.9-9.4,205.3
		c0,0-46.9-101.1-27-144.2c19.9-43.1,27.6-60.7,27.6-60.7s16.7-97.6,10.9-111.4C2312.6,331.6,2157,230.6,2168.7,224.9z"/>
	<path class="st13" d="M1947.7,189.9L2083,320.3l33.8,32.6l8.5,8.2l4.2,4.1c1.3,1.3,2.8,2.3,4.4,3.3c6.3,3.8,14.2,4.6,21.2,2
		l88.8-30.9c0.7-0.2,1.5,0.1,1.7,0.8c0.2,0.7-0.1,1.5-0.8,1.7l-88.5,31.6c-7.8,2.9-16.9,2.1-24.1-2.2c-1.8-1.1-3.5-2.3-5-3.7l-4.3-4
		l-8.5-8.1l-34.1-32.3l-136.4-129.4c-1.1-1.1-1.2-2.8-0.1-3.9C1944.8,188.9,1946.5,188.9,1947.7,189.9L1947.7,189.9z"/>
	<path class="st13" d="M2301,489.8l-0.3,0.3l-0.3,0.4l-0.6,0.7l-1.2,1.6c-0.8,1.1-1.5,2.3-2.2,3.5l-1.9,3.7
		c-0.6,1.3-1.1,2.5-1.7,3.8c-0.6,1.3-1,2.6-1.5,3.9c-0.5,1.3-1,2.6-1.4,4l-1.1,4.1c-0.4,1.4-0.8,2.7-1,4.1l-0.8,4.2
		c-0.2,1.4-0.6,2.8-0.7,4.2c-0.3,2.8-0.6,5.6-0.9,8.5l-0.3,8.5c0,0.7-0.1,1.4-0.1,2.1l0.1,2.1l0.2,4.3c0,5.7,0.9,11.4,1.4,17.1
		c0.1,1.4,0.4,2.8,0.6,4.3l0.7,4.2c0.5,2.8,0.9,5.7,1.5,8.5c1.3,5.6,2.5,11.2,4,16.8l4.9,16.6l0,0c0.2,0.5-0.1,1-0.7,1.2
		c-0.5,0.1-1-0.1-1.2-0.6l-5.3-16.6c-1.6-5.6-3-11.2-4.5-16.8c-0.6-2.8-1.1-5.7-1.7-8.6l-0.8-4.3c-0.3-1.4-0.6-2.9-0.7-4.3
		c-0.7-5.8-1.7-11.5-1.9-17.4l-0.3-4.4l-0.1-2.2c0-0.7,0-1.5,0-2.2l0.1-8.8c0.2-2.9,0.5-5.9,0.7-8.8c0.1-1.5,0.4-2.9,0.6-4.4
		l0.7-4.4c0.2-1.5,0.6-2.9,0.9-4.3l1-4.3c0.4-1.4,0.9-2.8,1.3-4.2c0.5-1.4,0.9-2.8,1.5-4.2c0.6-1.4,1.1-2.8,1.7-4.1l2-4
		c0.8-1.3,1.5-2.6,2.3-3.9l1.3-1.9l0.7-0.9l0.4-0.5l0.5-0.5c1-1.1,2.8-1.3,3.9-0.2s1.3,2.8,0.2,3.9c0,0,0,0,0,0L2301,489.8z"/>
	<path class="st13" d="M2305.6,525.7l0.1,5.4l0.1,6.1l0.3,12.3l0.7,24.6l1.6,49.2c0,0.8-0.6,1.5-1.5,1.6c-0.8,0-1.5-0.6-1.6-1.4
		l-2.8-49.1l-1.3-24.6l-0.6-12.3l-0.3-6.2l-0.1-3.1l0-1.6c0-0.7,0-1.5,0.1-2.2c0.1-1.5,1.4-2.6,2.9-2.5c1.4,0.1,2.5,1.3,2.5,2.6
		L2305.6,525.7z"/>
	<g>
		<path class="st14" d="M2417.5,1471.3c-1.1,0-2.2-0.5-3-1.3l-8.9-10c-6.3,0.9-12.6,0.9-18.9,0l-8.9,10c-1.1,1.3-2.9,1.7-4.5,1
			l-16.5-6.8c-1.6-0.6-2.5-2.2-2.4-3.9l0.8-13.4c-5.1-3.8-9.6-8.3-13.4-13.4l-13.4,0.8c-1.7,0.1-3.2-0.9-3.9-2.4l-6.8-16.5
			c-0.6-1.6-0.2-3.4,1-4.5l10-8.9c-0.9-6.3-0.9-12.6,0-18.9l-10-8.9c-1.3-1.1-1.7-2.9-1-4.5l6.8-16.5c0.6-1.6,2.2-2.5,3.9-2.4
			l13.4,0.8c3.8-5.1,8.3-9.6,13.4-13.4l-0.8-13.4c-0.1-1.7,0.9-3.2,2.4-3.9l16.5-6.8c1.6-0.6,3.4-0.2,4.5,1l8.9,10
			c6.3-0.9,12.6-0.9,18.9,0l8.9-10c1.1-1.3,2.9-1.7,4.5-1l16.5,6.8c1.6,0.6,2.5,2.2,2.4,3.9l-0.8,13.4c5.1,3.8,9.6,8.3,13.4,13.4
			l13.4-0.8c1.7-0.1,3.2,0.9,3.9,2.4l6.8,16.5c0.6,1.6,0.2,3.4-1,4.5l-10,8.9c0.9,6.3,0.9,12.6,0,18.9l10,8.9c1.3,1.1,1.7,2.9,1,4.5
			l-6.8,16.5c-0.6,1.6-2.2,2.5-3.9,2.4l-13.4-0.8c-3.8,5.1-8.3,9.6-13.4,13.4l0.8,13.4c0.1,1.7-0.9,3.2-2.4,3.9l-16.5,6.8
			C2418.5,1471.2,2418,1471.3,2417.5,1471.3z M2375.4,1465.9L2375.4,1465.9L2375.4,1465.9z M2407.7,1454.1l10.2,11.5l14.5-6
			l-0.9-15.3l1.2-0.9c5.5-4,10.3-8.8,14.3-14.2l0.9-1.2l15.3,0.9l6-14.5l-11.5-10.2l0.2-1.5c1.1-6.7,1.1-13.5,0-20.2l-0.2-1.5
			l11.5-10.2l-6-14.5l-15.3,0.9l-0.9-1.2c-4-5.5-8.8-10.3-14.2-14.3l-1.2-0.9l0.9-15.3l-14.5-6l-10.2,11.5l-1.5-0.2
			c-6.7-1.1-13.5-1.1-20.2,0l-1.5,0.2l-10.2-11.5l-14.5,6l0.9,15.3l-1.2,0.9c-5.5,4-10.3,8.8-14.3,14.2l-0.9,1.2l-15.3-0.9l-6,14.5
			l11.5,10.2l-0.2,1.5c-1.1,6.7-1.1,13.5,0,20.2l0.2,1.5l-11.5,10.2l6,14.5l15.3-0.9l0.9,1.2c4,5.5,8.8,10.3,14.2,14.3l1.2,0.9
			l-0.9,15.3l14.5,6l10.2-11.5l1.5,0.2c6.7,1.1,13.5,1.1,20.2,0L2407.7,1454.1z M2416.9,1319.1
			C2416.9,1319.1,2416.9,1319.1,2416.9,1319.1L2416.9,1319.1z M2388.3,1437.3c-0.2,0-0.3,0-0.5,0c-3.2-0.6-6.3-1.5-9.4-2.8
			c-11.3-4.7-20.1-13.5-24.8-24.8c-4.7-11.3-4.7-23.8,0-35.1c4.7-11.3,13.5-20.1,24.8-24.8c11.3-4.7,23.8-4.7,35.1,0
			c23.4,9.7,34.5,36.6,24.8,59.9c-3.2,7.7-8.4,14.3-15,19.3c-1.2,0.9-2.9,0.6-3.8-0.6c-0.9-1.2-0.6-2.9,0.6-3.8
			c5.9-4.3,10.4-10.2,13.2-17c8.5-20.6-1.3-44.3-21.9-52.8c-10-4.1-21-4.1-30.9,0c-10,4.1-17.7,11.9-21.9,21.9
			c-4.1,10-4.1,21,0,30.9c4.1,10,11.9,17.7,21.9,21.9c2.7,1.1,5.4,1.9,8.3,2.4c1.5,0.3,2.5,1.7,2.2,3.2
			C2390.8,1436.4,2389.6,1437.3,2388.3,1437.3z"/>
		<path class="st14" d="M2396.1,1411.1c-4,0-7.8-1.3-11.1-3.7c-8.2-6.1-9.9-17.8-3.8-26c3-4,7.3-6.6,12.2-7.3
			c4.9-0.7,9.8,0.5,13.8,3.5c8.2,6.1,9.9,17.8,3.8,26c-3,4-7.3,6.6-12.2,7.3C2397.9,1411.1,2397,1411.1,2396.1,1411.1z
			 M2396.2,1379.4c-0.6,0-1.3,0-1.9,0.1c-3.5,0.5-6.5,2.3-8.6,5.2c-4.3,5.8-3.1,14.1,2.7,18.4v0c2.8,2.1,6.3,3,9.8,2.5
			c3.5-0.5,6.5-2.3,8.6-5.2c4.3-5.8,3.1-14.1-2.7-18.4C2401.7,1380.3,2399,1379.4,2396.2,1379.4z"/>
	</g>
	<g>
		<path class="st15" d="M1742.3,1546.7H1551c-22.6,0-40.9-18.3-40.9-40.9v-191.4c0-22.6,18.3-40.9,40.9-40.9h191.4
			c22.6,0,40.9,18.3,40.9,40.9v191.4C1783.2,1528.4,1764.9,1546.7,1742.3,1546.7z"/>
	</g>
	<path class="st15" d="M2056.2,597.4h-793.5c-15.9,0-28.7-12.9-28.7-28.7V536c0-15.9,12.9-28.7,28.7-28.7h793.5
		c15.9,0,28.7,12.9,28.7,28.7v32.6C2084.9,584.5,2072.1,597.4,2056.2,597.4z"/>
	<g>
		<path class="st15" d="M2057.3,1214h-191.4c-22.6,0-40.9-18.3-40.9-40.9V981.8c0-22.6,18.3-40.9,40.9-40.9h191.4
			c22.6,0,40.9,18.3,40.9,40.9v191.4C2098.2,1195.7,2079.9,1214,2057.3,1214z"/>
	</g>
	<g>
		<path class="st15" d="M1433.7,1224h-191.4c-22.6,0-40.9-18.3-40.9-40.9V991.8c0-22.6,18.3-40.9,40.9-40.9h191.4
			c22.6,0,40.9,18.3,40.9,40.9v191.4C1474.5,1205.7,1456.2,1224,1433.7,1224z"/>
	</g>
	<g>
		<path class="st15" d="M1440.7,1546h-191.4c-22.6,0-40.9-18.3-40.9-40.9v-191.4c0-22.6,18.3-40.9,40.9-40.9h191.4
			c22.6,0,40.9,18.3,40.9,40.9v191.4C1481.6,1527.7,1463.3,1546,1440.7,1546z"/>
	</g>
	<g>
		<path class="st15" d="M1754.6,909.4h-191.4c-22.6,0-40.9-18.3-40.9-40.9V677.2c0-22.6,18.3-40.9,40.9-40.9h191.4
			c22.6,0,40.9,18.3,40.9,40.9v191.4C1795.5,891.1,1777.2,909.4,1754.6,909.4z"/>
	</g>
	<g>
		<path class="st15" d="M2060,909.4h-191.4c-22.6,0-40.9-18.3-40.9-40.9V677.2c0-22.6,18.3-40.9,40.9-40.9H2060
			c22.6,0,40.9,18.3,40.9,40.9v191.4C2100.8,891.1,2082.5,909.4,2060,909.4z"/>
	</g>
	<g>
		<path class="st15" d="M1433.6,908.7h-191.4c-22.6,0-40.9-18.3-40.9-40.9V676.5c0-22.6,18.3-40.9,40.9-40.9h191.4
			c22.6,0,40.9,18.3,40.9,40.9v191.4C1474.5,890.4,1456.2,908.7,1433.6,908.7z"/>
	</g>
	<g>
		<circle class="st15" cx="1344.6" cy="1705.6" r="110.4"/>
		<circle class="st15" cx="1622.7" cy="1705.6" r="110.4"/>
		<circle class="st15" cx="1922.3" cy="1705.6" r="110.4"/>
	</g>
	<g>
		<g>
			<path class="st6" d="M1984.7,1889.2l679.8,0v-110.4l-679.8,0C1999.3,1778.8,1999.3,1889.2,1984.7,1889.2z"/>
			<path class="st8" d="M2664.5,1861.6v-50.5c0-17.8-13.4-32.2-30-32.2h-646.9c-13,0-23.6-8.6-23.6-19.1c0-3.2,3.2-5.8,7.2-5.8h707
				c16.2,0,42,20.7,42,46.2v70.6c0,24.1-25,43.6-40.3,43.6h-705c-6,0-10.9-4-10.9-8.8c0-8.9,8.9-16.1,19.9-16.1h654.9
				C2653,1889.2,2664.5,1876.9,2664.5,1861.6z"/>
		</g>
		<path class="st8" d="M2645.7,1802.9h-637.4c-0.8,0-1.4-0.6-1.4-1.4c0-0.8,0.6-1.4,1.4-1.4h637.4c0.8,0,1.4,0.6,1.4,1.4
			C2647,1802.2,2646.4,1802.9,2645.7,1802.9z"/>
		<path class="st8" d="M2645.7,1819.2h-637.4c-0.8,0-1.4-0.6-1.4-1.4c0-0.8,0.6-1.4,1.4-1.4h637.4c0.8,0,1.4,0.6,1.4,1.4
			C2647,1818.6,2646.4,1819.2,2645.7,1819.2z"/>
		<path class="st8" d="M2645.7,1835.6h-637.4c-0.8,0-1.4-0.6-1.4-1.4s0.6-1.4,1.4-1.4h637.4c0.8,0,1.4,0.6,1.4,1.4
			S2646.4,1835.6,2645.7,1835.6z"/>
		<path class="st8" d="M2645.7,1852h-637.4c-0.8,0-1.4-0.6-1.4-1.4c0-0.8,0.6-1.4,1.4-1.4h637.4c0.8,0,1.4,0.6,1.4,1.4
			C2647,1851.4,2646.4,1852,2645.7,1852z"/>
		<path class="st8" d="M2645.7,1868.4h-637.4c-0.8,0-1.4-0.6-1.4-1.4c0-0.8,0.6-1.4,1.4-1.4h637.4c0.8,0,1.4,0.6,1.4,1.4
			C2647,1867.8,2646.4,1868.4,2645.7,1868.4z"/>
	</g>
	<path class="st16" d="M2655.5,2097.5h-845.9c-16.9,0-30.7-13.7-30.7-30.7v-123.1c0-16.9,13.7-30.7,30.7-30.7h845.9
		c16.9,0,30.7,13.7,30.7,30.7v123.1C2686.1,2083.8,2672.4,2097.5,2655.5,2097.5z"/>
	<path class="st15" d="M1977.6,2076.3h-85.8c-5.7,0-10.4-4.6-10.4-10.4v-121.3c0-5.7,4.6-10.4,10.4-10.4h85.8
		c5.7,0,10.4,4.6,10.4,10.4v121.3C1988,2071.7,1983.4,2076.3,1977.6,2076.3z"/>
	<path class="st15" d="M2035.2,2076.3h-23.1c-4.7,0-8.4-3.8-8.4-8.4v-125.2c0-4.7,3.8-8.4,8.4-8.4h23.1c4.7,0,8.4,3.8,8.4,8.4v125.2
		C2043.7,2072.5,2039.9,2076.3,2035.2,2076.3z"/>
	<g>
		<path class="st17" d="M1712.1,1238h-221.7c-22.6,0-40.9-18.3-40.9-40.9V975.4c0-22.6,18.3-40.9,40.9-40.9h221.7
			c22.6,0,40.9,18.3,40.9,40.9v221.7C1753,1219.7,1734.7,1238,1712.1,1238z"/>
	</g>
	<g>
		<path class="st18" d="M1374.7,2224.2c-3.7,0-7-2.4-7.7-5.8l-121-640.8c-0.7-3.8,2.1-7.4,6.4-8c4.2-0.6,8.3,1.9,9,5.7l121,640.8
			c0.7,3.8-2.1,7.4-6.4,8C1375.6,2224.2,1375.2,2224.2,1374.7,2224.2z"/>
		<path class="st18" d="M966.4,2224.2c-0.5,0-1,0-1.5-0.1c-4.2-0.8-6.9-4.4-6.1-8.2l142.7-632.4c0.8-3.8,4.9-6.2,9.2-5.4
			c4.2,0.8,6.9,4.4,6.1,8.2L974,2218.7C973.3,2222,970,2224.2,966.4,2224.2z"/>
		<path class="st18" d="M1282.4,1736h-206.9c-4.3,0-7.8-3.1-7.8-7c0-3.8,3.5-7,7.8-7h206.9c4.3,0,7.8,3.1,7.8,7
			C1290.2,1732.9,1286.7,1736,1282.4,1736z"/>
		<path class="st18" d="M1278.6,1736h-199.3c-4.1,0-7.5-3.1-7.5-7c0-3.8,3.4-7,7.5-7h199.3c4.1,0,7.5,3.1,7.5,7
			C1286.1,1732.9,1282.8,1736,1278.6,1736z"/>
		<path class="st18" d="M1282.4,1851.9h-206.9c-4.3,0-7.8-3.1-7.8-7c0-3.8,3.5-7,7.8-7h206.9c4.3,0,7.8,3.1,7.8,7
			C1290.2,1848.8,1286.7,1851.9,1282.4,1851.9z"/>
		<path class="st18" d="M1301.2,1851.9h-250.8c-4.3,0-7.8-3.1-7.8-7c0-3.8,3.5-7,7.8-7h250.8c4.3,0,7.8,3.1,7.8,7
			C1308.9,1848.8,1305.5,1851.9,1301.2,1851.9z"/>
		<path class="st18" d="M1282.4,1967.7h-206.9c-4.3,0-7.8-3.1-7.8-7c0-3.8,3.5-7,7.8-7h206.9c4.3,0,7.8,3.1,7.8,7
			C1290.2,1964.6,1286.7,1967.7,1282.4,1967.7z"/>
		<path class="st18" d="M1325.1,1967.7h-300.2c-4.3,0-7.8-3.1-7.8-7c0-3.8,3.5-7,7.8-7h300.2c4.3,0,7.8,3.1,7.8,7
			C1332.9,1964.6,1329.4,1967.7,1325.1,1967.7z"/>
		<path class="st18" d="M1282.4,2083.6h-281.6c-4.3,0-7.8-3.1-7.8-7c0-3.8,3.5-7,7.8-7h281.6c4.3,0,7.8,3.1,7.8,7
			C1290.2,2080.5,1286.7,2083.6,1282.4,2083.6z"/>
		<path class="st18" d="M1344.5,2083.6h-343.7c-4.3,0-7.8-3.1-7.8-7c0-3.8,3.5-7,7.8-7h343.7c4.3,0,7.8,3.1,7.8,7
			C1352.3,2080.5,1348.8,2083.6,1344.5,2083.6z"/>
	</g>
	<path class="st19" d="M1103.2,1802.2c0,0-6.3,9.9-7.8,37.5c-0.1,2.6,1.9,4.8,4.5,4.8h49c2,0,3.4-1.9,2.7-3.8
		c-2.9-8.5-11.6-29.2-30.9-41.1L1103.2,1802.2z"/>
	<path class="st20" d="M1101.1,1783.5l2.8,23.2c0.2,2,1.8,3.6,3.8,3.8c2.7,0.3,6.6,0.5,10.4-0.1c3.4-0.6,5.9-3.6,5.9-7.1v-22.4
		L1101.1,1783.5z"/>
	<path class="st19" d="M1224.5,1799.7c0,0-9.4,14.6-9.2,34.6c0,4.7,4,8.5,8.7,8.5h76.1c3.6,0,5-4.6,2.1-6.6
		c-14.4-10.1-42.7-29-63.2-36.4H1224.5z"/>
	<path class="st20" d="M1216.7,1774.5l5.9,28.7c0.7,3.2,3.8,5.4,7,4.7c1.9-0.4,4.2-1.3,6.7-2.8c2.3-1.5,3.5-4.2,3-6.9l-6.1-34.8
		L1216.7,1774.5z"/>
	<path class="st21" d="M1112,1375.4c0,0-20.6,18.1-24.4,39.9c-3.9,21.8,11,376.3,11,376.3s20.6,3.4,31.2-3c0,0,12.6-230,22.1-283.2
		c0,0,50.1,238.3,64,281.4c0,0,19.8,2.4,26.2-1.4c0,0-13.1-308.9-29.6-363.8L1112,1375.4z"/>
	<path class="st19" d="M1151.2,1497.9c-1,0-1.9-0.7-2.1-1.6l-8.5-32.7l-18.1-11.6c-1-0.7-1.3-2-0.7-3c0.7-1,2-1.3,3-0.7l18.9,12.1
		c0.5,0.3,0.8,0.8,0.9,1.3l8.7,33.5c0.3,1.2-0.4,2.4-1.6,2.7C1151.6,1497.8,1151.4,1497.9,1151.2,1497.9z"/>
	<path class="st22" d="M1314.9,1170.6c-86.6-7.2-109.2,10.7-109.2,10.7l41.6,65.7c0,0,85-1.7,146-48.6
		c-11.4-12.3-19.3-25.9-24.4-36.4C1353.2,1168.4,1335.1,1172.3,1314.9,1170.6z"/>
	<path class="st20" d="M1450.4,1043.5c-0.1-2.8-3.9-3.5-5.1-1l-11,23.6c-2.1,4.6-2.8,9.7-2,14.6l3.9,13.7c1.2,6.7-0.6,13.5-4.8,18.8
		c-10.1,12.7-31.8,35.9-62.5,48.6c5.1,10.6,13,24.1,24.4,36.4c22.4-17.2,41.5-40.6,52-72.1c5-1.5,8.4-6.3,8.2-11.5L1450.4,1043.5z"
		/>
	<path class="st23" d="M1343.4,1208.6c-30.5-32.8-88.5-47.7-122.1-53.8c-14.7-2.7-29.2,5.5-34.4,19.5
		c-15.1,40.6-56.2,146.4-64.2,164.6c-6.5,14.9-13.4,29.5-17.7,38.6c-2.6,5.4-0.3,11.9,5.1,14.6c28.3,13.6,79.1,29,99.8,35.1
		c4.5,1.3,9.1-2.1,9.1-6.8c0-4,1.1-7.9,3.2-11.4l78.1-130.2c48.7,54,91.3,58.9,124.1,47.1c-5.5-17-9.1-34.1-10.8-51.2
		C1364.9,1266.5,1343.4,1208.6,1343.4,1208.6z"/>
	<path class="st20" d="M1493.2,1265.8l-8.7-11.6c-28.3,19.4-51.9,24-71.2,20.7c1.7,17.1,5.3,34.1,10.8,51.2
		C1467.3,1310.4,1493.2,1265.8,1493.2,1265.8z"/>
	<path class="st20" d="M1487.1,1266l49.2,1.9l45.3-25.3c-6.5-4.1-43.3,4.3-43.3,4.3s-38.4-5.8-48.8-5.8c-8.6,0-7.4,12.4-6.7,16.6
		c0.1,0.9,0.2,1.4,0.2,1.4L1487.1,1266z"/>
	<path class="st20" d="M1267.5,1094.6l-26,63.3c0,0,29.8,20.6,53.8,18.7l13-57L1267.5,1094.6z"/>
	<path class="st20" d="M1311.3,1051.4c0.6,0.8,18.8,66.5,18.8,66.5l-37.7,9.6l-26.5-59.7C1265.9,1067.8,1301.4,1037.3,1311.3,1051.4
		z"/>
	<path class="st19" d="M1297.1,1061.4c-8.1-0.6-14.2,7.5-16.6,11.4c-0.8,1.2-0.9,2.7-0.4,4.1l3.3,9.4c0.4,7.8-3.2,21.3-4.8,27
		c-2-4-3.9-7.4-5.1-9.2c-3.8-5.8-13.3-5.6-17.2-5.3c-1.3,0.1-2.6-0.3-3.6-1.1c-3.5-3-10-10.8-0.8-20c1.9-1.9,1.9-5.1-0.1-6.9
		c-4-3.7-8.2-10.4-1.6-18.6c6.7-8.4,15.6-7,21.1-5c2.2,0.8,4.6-0.1,5.8-2.2c0.7-1.1,1.9-2,3.9-1.8c2.8,0.2,5.1-2.1,5.1-4.9
		c-0.1-5.4,1.8-12.1,11.1-15c16.5-5.1,26.8,10.8,27.8,22.7C1326,1057.7,1307.8,1062.2,1297.1,1061.4z"/>
	<path class="st20" d="M1277.8,1115.8c0,0-2.7-20.6-11.2-21.6c-8.6-1-16.9,6-8.4,17.6C1268.8,1126.2,1277.8,1115.8,1277.8,1115.8z"
		/>
	<g>
		<path class="st17" d="M2073.2,1552.5h-221.7c-22.6,0-40.9-18.3-40.9-40.9v-221.7c0-22.6,18.3-40.9,40.9-40.9h221.7
			c22.6,0,40.9,18.3,40.9,40.9v221.7C2114.1,1534.2,2095.8,1552.5,2073.2,1552.5z"/>
	</g>
	<g>
		<path class="st19" d="M2395,1621.6c-10.6-39.1-43.2-71.2-79.6-79.3c-6.7-1.5-10.6-8.3-9-15c0,0,0-0.1,0-0.1
			c5.3-22.7-9.3-40.8-31.3-45.9c-22-5.1-43,4.7-48.3,27.5c-3.6,15.3,1,32.6,11.1,43.8c4.2,4.6,4.5,11.5,0.5,16.2
			c-22.2,26-31.2,65.6-21.6,101.1c14.1,52.2,63.2,75.6,112.4,62.3S2409.1,1673.8,2395,1621.6z"/>
		<path class="st24" d="M2379.7,1671.4l-1-0.7c8.8-12.5,9.9-30.5,2.9-47.1c-5.5-13.1-15.5-25.2-31.3-37.8
			c-5.9-4.7-12.1-9.2-18.1-13.5c-7.3-5.2-14.8-10.6-21.7-16.5c-6.3-5.3-12.8-11.8-14.2-20.4c-0.7-4.3,0-8.8,0.6-13.2
			c1-6.9,1.9-13.4-2.1-18.3l0.9-0.7c4.4,5.4,3.4,12.4,2.4,19.2c-0.6,4.3-1.2,8.8-0.6,12.9c1.3,8.2,7.7,14.5,13.8,19.7
			c6.9,5.8,14.4,11.2,21.6,16.4c6,4.3,12.3,8.8,18.2,13.6c15.9,12.8,26,24.9,31.6,38.3C2389.9,1640.1,2388.7,1658.6,2379.7,1671.4z"
			/>
		<path class="st24" d="M2356.3,1679l-1.1-0.4c6-16.6,4.2-36.9-4.8-55.9c-9-18.8-23.6-34.1-35.4-45.3l0.8-0.8
			c11.8,11.3,26.6,26.7,35.7,45.7C2360.6,1641.4,2362.4,1662.1,2356.3,1679z"/>
	</g>
	<path class="st20" d="M2120.4,1464.6l-0.4-13.5l14.1-28c2.6-5.1,2.6-11.2,0.1-16.3l-16-32.3c0,0-9.2,70-11.7,75.9
		c-2.4,5.8,6.6,16.3,6.6,16.3L2120.4,1464.6z"/>
	<path class="st20" d="M2119.9,1451.1c0,0,42.9,117,116,153.5c0,0-24.3,39.7-37,42.1c0,0-78.1-100-86.1-181.9L2119.9,1451.1z"/>
	<path class="st19" d="M2414,2154.7l2.2,17.7c2.2,8.4,13.1,29.7,27,28.3c8.6-0.9,9.6-25.9,8.4-29.6c-2.2-6.8-6.2-17.1-11.9-23.2
		H2420C2416.4,2147.9,2413.6,2151.1,2414,2154.7z"/>
	<path class="st20" d="M2259.9,1946.9l-3.3,19.5c0,0,16.9,129.9,18.8,174.9c0.3,7.1-3.2,12.9-9,15.8l-28.7,10
		c0,0,17.2,22.9,64.5,1.4c4.3-4.3-1.3-10.8-1.3-10.8l-8-11.1l4.8-143.4c0.6-7.4-0.9-14.9-4.4-21.4l-10.2-19.1L2259.9,1946.9z"/>
	<path class="st20" d="M2327.2,1956.2c0,0,65.2,123.6,75.5,151.8s14,51.8,14.1,54c0.2,3.5,4.6,6.8,16.5,6.8c6.2,0,9.2-2.5,10.7-4.9
		c1.3-2,1.3-4.6,0.3-6.7c-3.8-7.6-15.7-32-20.2-43.1c-5.3-13.2-16.7-73-22.9-93.8c-6.2-20.8-13.3-43.4-40.5-64.2
		C2360.7,1956.2,2342.1,1937.9,2327.2,1956.2z"/>
	<path class="st25" d="M2286,1753.6c-9.5-40.4,0.1-70.9,10.1-89.7c8-15,2.4-33.5-12.7-41.4c-23.6-12.3-47.5-18-47.5-18
		s-46.7,34.2-41.2,60.9c3.2,15.7,32.8,93.8,32.8,93.8S2255,1772.3,2286,1753.6z"/>
	<path class="st26" d="M2323.3,1788.9c-6.8-20.6-37.3-35.3-37.3-35.3c-31,18.6-58.4,5.7-58.4,5.7s-6.1,23.5-1.9,45.2
		s30.8,161.9,30.8,161.9c41.9,8.5,106.2-8.5,106.2-8.5C2336.1,1910.6,2330.1,1809.5,2323.3,1788.9z"/>
	<path class="st20" d="M2266.5,1557.5l13.7,61.4c1.3,5.4-3.6,4.5-9.1,3.5c-9-1.7-20.5-5.2-24.3-12.1c-0.4-0.7-0.6-1.5-0.7-2.3
		l-5.9-42.6c-0.5-3.4,1.4-6.7,4.5-8l11.3-5C2260.3,1550.4,2265.4,1552.9,2266.5,1557.5z"/>
	<path class="st20" d="M2095.7,1517c0,0,36,125,181,113.2c9.3-0.8,17.4,6.1,18.2,15.4l0.4,5c1,13.4-9.9,24.8-23.4,24.1
		c-48.2-2.4-151.8-21.4-187.4-136L2095.7,1517z"/>
	<path class="st20" d="M2084.5,1538.7c0,0-6.9-20.3-8.6-33.1c-1.7-12.7,4.7-41.2,10.1-49.3c5.5-8,6.4,11.6,8.9,20.9
		c2.5,9.2-1.7,22.4-1.7,22.4l2.5,17.3L2084.5,1538.7z"/>
	<g>
		<path class="st20" d="M2238.5,1506.9c0,0-34.6,50.3-13.1,64.4c21.5,14,46.1-21.7,46.1-21.7s7.7-27.3-1.1-36.4
			C2261.7,1504.1,2238.5,1506.9,2238.5,1506.9z"/>
		<path class="st19" d="M2253,1494.7c0,0-15,3.9-17,10.7c-2,6.9,21.7,12.8,28.3,13l5.8,27.5c0,0,15.2-26.2,8.7-41.1
			C2272.3,1489.9,2253,1494.7,2253,1494.7z"/>
		
			<linearGradient id="SVGID_4_" gradientUnits="userSpaceOnUse" x1="-4385.8008" y1="-2184.2014" x2="-4413.7563" y2="-2098.1846" gradientTransform="matrix(0.9653 0.2612 -0.2612 0.9653 8566.498 774.7174)">
			<stop  offset="0" style="stop-color:#FF928E"/>
			<stop  offset="1" style="stop-color:#FEB3B1"/>
		</linearGradient>
		<path class="st27" d="M2264.6,1546c0,0,13.5-16.3,19.2-5.9c5.7,10.3-12.1,18.5-18.4,13.5L2264.6,1546z"/>
	</g>
	<path class="st28" d="M927.2,1777.5c0.1,2.5-0.5,13.7,1.9,18.4c0.6,1.2-0.5,2.5-0.9,3.5c-1.5,3.3-6.2,7.8-21.4,10
		c-15.3,2.3-32.3,0.7-41.2-0.5c-8.9-1.1-3.6-5.5,0.5-7.3c4.1-1.8,35.4-12,39.9-16.4c4.5-4.5,1.2-12.1,1.9-13.4
		C908.4,1770.6,925,1770.7,927.2,1777.5z"/>
	<path class="st29" d="M929.1,1795.9c0,0,2.8,0.6,3.7,3.9c0.9,3.3,0,14.2-1.9,18.1c-1.9,3.9-12.3,2.4-30.3,2.4c-18,0-17.1,0-26.9,0
		c-9.8,0-24.3-2.8-25.9-6.6c-1.6-3.8,6.1-11.6,19.4-12.5c0,0-2.7,1.8,0.8,4.3c3.4,2.5,15.3,5.1,33.4,3
		C919.4,1806.3,928.4,1798.6,929.1,1795.9z"/>
	<path class="st29" d="M2302.5,2160c0,0,2.8,0.6,3.7,3.9c0.9,3.3,0,14.2-1.9,18.1c-1.9,3.9-12.3,2.4-30.3,2.4c-18,0-17.1,0-26.9,0
		c-9.8,0-24.3-2.8-25.9-6.6c-1.6-3.8,6.1-11.6,19.4-12.5c0,0-2.7,1.8,0.8,4.3c3.4,2.5,15.3,5.1,33.4,3
		C2292.9,2170.5,2301.9,2162.8,2302.5,2160z"/>
	<path class="st29" d="M909.4,1413.5l-4.6,6.7c0,0-10.9,119.3-10.2,156.7c0.6,37.4,7.7,43.2,8.1,80.9c0.3,37.7,4.2,110.2,3.9,119.2
		c-0.3,9,16.4,7.1,21.3,3.2c4.8-3.9,9.7-130,8.4-148.9c-1.3-18.8,2.2-45.1,6.4-62.5c4.2-17.4,30-113.7,30-138.9
		C972.5,1404.8,909.4,1413.5,909.4,1413.5z"/>
	<path class="st28" d="M974.5,1592.4c0,0,2,1.1,6.6,0.9c3.1-0.2,6.4-0.5,9.2-0.2c1.3,0.1,2.5,0.3,3.6,0.8c3.4,1.3,8.1,5.7,11.2,20.8
		c3.1,15.1,2.5,32.3,1.8,41.2c-0.6,8.9-5.3,3.9-7.3-0.1c-2-4-12.7-31.2-20.6-38.3c-7.9-7.1-9-6.2-10.3-6.9
		C967.4,1610,967.8,1594.9,974.5,1592.4z"/>
	<path class="st29" d="M990.3,1593.1c0,0,0.4-2.8,3.7-3.9s14.2-0.8,18.2,0.9c4,1.7,3.1,12.1,4.1,30.1c1,18,0.9,17.1,1.5,26.8
		c0.5,9.8-1.5,24.4-5.2,26.2c-3.7,1.8-12-5.5-13.5-18.7c0,0,1.9,2.6,4.2-1c2.3-3.5,4.2-15.6,1.1-33.5
		C1001.2,1602.2,993.1,1593.6,990.3,1593.1z"/>
	<path class="st30" d="M982.2,1393.3c5.1,3.8,25.2,17.1,27.3,21.5c38.1,82.4-117.7,105.1-135.9,132.3
		c-3.1,4.6,100.5,42.9,103.5,45.3c3,2.4,0.5,18.5-3.2,21.2c-3.7,2.6-130-25.8-158.7-43.2c0,0-18.2-13.8-0.8-44.5
		c17.4-30.6,97.8-81.9,103.2-88.3c5.5-6.4,14.4-14.3,10.9-25.4C924.9,1401,982.2,1393.3,982.2,1393.3z"/>
	<path class="st28" d="M850.5,1259.9l-4.1-1.3c0,0-2.2-5.7-4.9-8.1c-2.6-2.4-7.3-6.3-7.7-11.8c-0.4-5.5,20.4-8.5,20.4-7.3
		c0,1.2,8.7,9.6,7.9,13.1c-0.8,3.5-3.6,9.2-3.6,9.2L850.5,1259.9z"/>
	<path class="st31" d="M921.9,1259.4c0,0-26,60.1-31.1,66.3c-5.1,6.2-27.5-60.2-32.3-72.2c0,0-9.4,0.5-12.4,3.5
		c0,0,15.1,79.9,22.1,95.9c7,16,22.4,18.2,36.4,12.3c14-5.9,50.1-69.4,57.7-81C969.9,1272.5,950,1231.8,921.9,1259.4z"/>
	<path class="st29" d="M1004.5,1227c27.2-37.8,7.5-64.1-13.8-76.7c-9.9-5.8-18.4-25.7-18.3-34.3c0.6-30.4-15-65.4-46.7-55.6
		c-58.1-23.7-62.1,28.4-53.4,63c2.4,9.6-3.1,19.2-11.6,27.8c-20.7,21.1-8.5,48.3-0.3,63.2c8.2,14.9-6.3,31.5,1.4,43.2
		c9.2,13.9,50.5,50.2,58.5,12.1C934.4,1201.6,960.9,1234.2,1004.5,1227z"/>
	<path class="st28" d="M926.8,1158.1l-1,10c0,0,4.7-0.2,6.3,4c1.6,4.2,5.9,28.8,5.6,37.4c0,0,0.4,0.8,1.8,0.2
		c1.4-0.5,17.5-18.8,29.6-22.9l-26.5-59.9L926.8,1158.1z"/>
	<path class="st32" d="M937.4,1207.5c0,0-2.1,7.3-12.9,21.4c-10.7,14.1-36.3,38.7-36.3,51.3c0,12.7,14.2,40.9,16.1,54
		c4.7,32.9-7.5,62.3-3.6,95.5c0.4,3.5,1.8,2.7,3,2.4c1.2-0.3,30.2-5,56.2-3.5c26,1.5,44.5-5.8,50.5-10.7c0,0,3.1-3.4,2.1-6.6
		c-0.9-3.1-18.4-39.3-18.1-77.7c0.3-38.4,51.8-121.3-25.4-146.8c0,0-12.3,3-16.7,5.3C947.9,1194.4,937.4,1207.5,937.4,1207.5z"/>
	<path class="st33" d="M935.6,1232.6c0,0-14.2,73.1-18.3,81.3c-4.2,8.1-45.2-60.3-53.6-72.4c0,0-10.3,2.8-12.9,6.9
		c0,0,36.3,85.2,48,101.3c11.7,16.1,29.4,14.8,43.5,4.8c14.1-10,38.8-89.3,44.3-104.2C992.2,1235.3,960.2,1195,935.6,1232.6z"/>
	<path class="st34" d="M819.9,1171.6c0,0-3.4,0.9-3.4,3.2c-0.1,2.4,7.6,56,8.6,58.1s1.9,5.5,24.4,3.1c0,0,3.9-0.7,4.8-2.8
		c0.9-2-4.5-50-4.8-55.6c-0.3-5.6-3.8-6.7-7-7C839.1,1170.5,819.9,1171.6,819.9,1171.6z"/>
	<path class="st28" d="M900.2,1074.8c0,0-3.8,4.4-9.1,8.6c-11.9,9.2-10.1,48.1-1,70c0.6,1.5,4.8,0.4,6.6-0.2
		c3.2-1.1,12,12.1,14.3,16c2,3.4,7.8,1.6,12.9-0.2c5.1-1.9,17.6-13.3,21.6-25.6c4-12.3-0.3-29.1-0.3-29.1s2.8-7.4,1.2-13.2
		c-1.6-5.8-2.2-4.7-5-5.8c-2.9-1.1-3.3,9.1-3.3,9.1S920.9,1069.6,900.2,1074.8z"/>
	<path class="st29" d="M883.2,1089.4c7.9,18.2,43.8,5.7,54.8,15l-2.9-19l-5.5-13.2c0,0-13-8.1-14.5-7.6
		C913.5,1065.3,882.5,1077.2,883.2,1089.4z"/>
	<path class="st28" d="M851.7,1251c0,0-3.3-3.2-10.9-7.3c-7.6-4.1-14.1-7.6-15.1-10.3c-1-2.7-0.3-5.4,1.2-6.3
		c1.4-0.9,5.2,0.2,6.8-0.3c1.6-0.5-2.5-2.8-5.2-3.4c-2.7-0.5-5.9-0.5-7-1.2c-1.1-0.7-1-2.2-0.7-2.7c0.2-0.5,2.5-0.6,5.4-0.8
		c2.9-0.2,4.6-0.4,7.3,0.5c2.7,0.9,5.5,1.3,5.8,1.2c0.3-0.1,1-2.3,0-4.1c-1-1.8-4.8-5-6.1-5.9c-1.3-0.9-5.6-0.5-7.6-1.3
		c-2-0.7-1.8-3.1,0.5-3.6c2.4-0.5,5.1-0.2,8.5-0.1c3.5,0.1,4.9,2.2,9.3,5.1c4.4,2.9,12.5,8.2,14.8,13.9c2.3,5.7,2.9,13.1,4.9,16.9
		C865.7,1245.2,861.4,1249.8,851.7,1251z"/>
	<path class="st29" d="M968.4,1116.7l-23-1.1c-17.1,15.1-13,54.5-0.1,71.8c14.8,20.1,39.3,3.3,48.7,12.9l2.8-23.4
		C996.8,1177,952.6,1140.2,968.4,1116.7z"/>
	<path class="st28" d="M1081.5,148.6c0,0-2.4-1.8-4.4-7.3c-1.4-3.8-2.7-7.8-4.5-11.1c-0.8-1.5-1.7-2.8-2.7-3.9
		c-3.3-3.4-10.9-6.7-30.5-2.6c-19.6,4-39.6,13.6-49.9,19c-10.3,5.3-2,8.3,3.8,8.7c5.8,0.4,43.7-0.9,56.2,4.9
		c12.5,5.8,12,7.5,13.4,8.7C1064.2,166.1,1081.9,157.9,1081.5,148.6z"/>
	<path class="st29" d="M1072.6,130.2c0,0,3.2-1.9,2.8-6.4c-0.4-4.4-6.4-17.3-10.4-21.2c-4.1-3.8-16,2.6-37.9,10.6
		c-21.9,8-20.8,7.6-32.7,12c-11.9,4.4-28.2,14.3-28.5,19.6c-0.3,5.3,12.6,11.4,29.2,6.5c0,0-4-1-1-5.5c3-4.6,16.4-13,39.3-18.5
		C1056.2,121.9,1070.6,127.1,1072.6,130.2z"/>
	<path class="st29" d="M1166.8,228.3c0,0-83.6-80.5-88-84.9c-4.4-4.4-22.1,1.3-23.4,10.6c-1.3,9.3,88,128.7,88,128.7L1166.8,228.3z"
		/>
	<path class="st28" d="M1221.4,129.3c0,0-0.3-3,2.3-8.3c1.8-3.6,3.8-7.4,5-10.9c0.5-1.6,0.9-3.2,0.9-4.6c0.2-4.7-2.7-12.5-19.1-24
		c-16.4-11.4-37.1-19.4-48.1-23.2c-11-3.8-7.4,4.2-3.7,8.7c3.7,4.5,30.7,31.1,35.1,44.1c4.4,13.1,2.8,13.9,2.9,15.8
		C1196.8,128.8,1214.9,136,1221.4,129.3z"/>
	<path class="st29" d="M1228.7,110.2c0,0,3.6,1,6.6-2.3c3-3.3,8.2-16.5,8.2-22.1c0-5.6-12.9-9.9-33.8-20.2
		c-20.9-10.4-19.8-9.8-31.2-15.5s-29.8-10.7-33.8-7.2c-4,3.4,0.4,17,15.3,25.7c0,0-2.1-3.6,3.4-4.5c5.4-0.9,20.7,3,40.4,15.8
		C1223.4,92.5,1229.5,106.6,1228.7,110.2z"/>
	<path class="st30" d="M1386.3,288l-7.9,26.9c0,0-177.4,0-204,0c-26.5,0-38-15.4-40.2-32.2c-2.1-15.7,51.7-138.9,62.2-161
		c5.3-11.2,29.1-9.3,26.3,5.6c-5.5,29.8-28.6,116.7-28.6,124.9c0,9.7,2.7,11.1,20.3,7.5c17.7-3.5,101.3-53.1,143.3-48.6
		C1399.8,215.5,1386.3,288,1386.3,288z"/>
	<path class="st29" d="M1523.7,202.8c-17-57.9,18.3-81.6,49.8-87.8c14.5-2.9,33.6-23.5,37.1-34.1c12.3-37.5,46.4-73.5,80.9-47.9
		c81.2-4,63.8,61.4,38.2,100c-7.1,10.7-4.4,24.8,2.3,39c16.3,34.7-10.4,62.7-26.7,77.4c-26.6,23.9-3.2,65.5-70.4,65.5
		c-37.8,0-45.5-23.8-46.5-71.4C1587.6,204,1564.6,225.2,1523.7,202.8z"/>
	<path class="st35" d="M1764.5,208.5c0,0,9.2,3.2,11.3,7c0,0-37.4,73.5-47.1,85.1c-9.7,11.6-17.5,11.4-26.8,8.7c0,0-0.2-0.1-0.5-0.2
		l0,0c-4-1.5-31-12.3-60.9-34.5c-32.5-24.1-56.2-57.9-50.7-68.8c5.5-11,17.7-19.4,31.8-10.2c14.2,9.2,36.1,46.5,59.2,67
		c22.8,20.2,27.4,14.9,29,13.1l0.1-0.1C1727.3,255,1748.5,228.8,1764.5,208.5z"/>
	<path class="st36" d="M1648.2,151.9l-3,12.6c0,0-5.7-2.3-9.4,2.2c-3.7,4.4-19.6,32.7-22.9,43.3c0,0-0.8,0.8-2.3-0.4
		c-1.5-1.2-13.3-30.5-26.3-40.7l58.1-61.9L1648.2,151.9z"/>
	<path class="st28" d="M1716.5,61.5c0,0,11.8,20.7,5.9,37.1c-5.9,16.4-10.3,26.4-12.1,28.1c-1.9,1.7-3.1,1.1-4.1,3
		c-0.9,1.9-3.8,7.8-6.1,15.8c-2.3,8-7.1,3.8-11.2,4.7c-1.9,0.4-15.9,15.7-19.2,15.5c-13.7-1.1-23-31.9-28.4-36.4
		c-5.4-4.5-9.9,13.4-9.6-3.4c0.4-16.8,13.3-21.4,13.3-21.4c-7.1-22.9,16.5-33.7,9.5-10.5C1654.5,94,1693.5,46.2,1716.5,61.5z"/>
	<path class="st29" d="M1724.2,76.6c-16.1,42.1-41.4,4.5-69.7,17.4l14.8-34.5l12.4-13.7c0,0,19.3-4.4,21-3
		C1704.4,44.1,1730.3,62,1724.2,76.6z"/>
	<path class="st29" d="M1615.1,83.3l29.9,21.1c14.4,25.8,34.9,103,1.1,147.9c-26.8,18.2-82.6-85.4-98.2-77.7l6.6-29.8
		C1554.6,144.9,1624.4,118.9,1615.1,83.3z"/>
	<path class="st32" d="M1616.1,147.4c0,0-24.3-21.6-54.8-5.3c-30.5,16.3-45.1,37.1-102.6,54.4c-57.5,17.3-97.3,3.1-102.6,4
		c-5.3,0.9-11.1,19.5-5.8,50c5.3,30.5,13.3,63.7,33.6,65.9c20.3,2.2,85.8-9.7,120.3-27c34.5-17.3,49.1-3.1,69.9-9.3
		c20.8-6.2,19-26.5,34.1-50.4C1623.1,205.8,1635.2,172.4,1616.1,147.4z"/>
	<path class="st37" d="M1775.2,216.4c0.7-1,1.5-1.9,2.3-2.5c2.7-2.1,7.3-5.6,8-10.8s-18.8-9.4-18.9-8.3c-0.1,1.1-8.9,8.5-8.3,11.9
		c0.4,2.7,2,6.8,2.6,8.4c1.5-0.9,3.1-1,4.7,0.3C1770.3,219.4,1775.2,216.4,1775.2,216.4L1775.2,216.4z"/>
	<path class="st29" d="M1797.3,139.5c0,0,3.2,0.9,3.2,3.2c0,2.2-8.8,53.1-9.8,55.1c-1,2-2,5.2-23.3,2.2c0,0-3.7-0.8-4.5-2.8
		c-0.8-2,5.8-47.5,6.2-52.8c0.4-5.3,3.8-6.2,6.9-6.4C1779,137.8,1797.3,139.5,1797.3,139.5z"/>
	<path class="st32" d="M1756.9,204c0,0,9.6,3.4,11.9,7.4c0,0-39.9,78.7-52,93.3c-8.1,9.8-18.3,11.9-28,9.2c0,0-0.2-0.1-0.5-0.2l0,0
		c-4.2-1.6-32.4-12.9-63.8-36.1c-34.1-25.2-58.8-60.6-53.1-72.1c4.2-8.3,42.4-29.7,54.6-27.8c0,0-0.6,31.5,22.3,67.9
		c6,7.1,12.1,13.8,18.4,19.3c23.8,21.2,28.7,15.6,30.4,13.7l0.1-0.1C1715.2,256.8,1740.1,225.3,1756.9,204z"/>
	<path class="st28" d="M1767.7,213.9c0,0,3.4-2.8,10.8-6.2c7.5-3.4,13.8-6.4,15-8.9c1.2-2.5,0.6-5.1-0.7-6.1c-1.3-0.9-5-0.1-6.5-0.7
		c-1.5-0.6,2.6-2.5,5.2-2.9c2.6-0.3,5.6-0.1,6.7-0.7c1.1-0.6,1.1-2,0.9-2.5c-0.2-0.5-2.3-0.7-5.1-1.1c-2.8-0.4-4.4-0.7-7,0
		c-2.6,0.7-5.3,0.9-5.6,0.8c-0.3-0.1-0.8-2.2,0.2-3.9c1-1.6,4.9-4.4,6.2-5.2c1.3-0.8,5.3-0.2,7.3-0.7c1.9-0.6,1.9-2.8-0.3-3.4
		c-2.2-0.6-4.8-0.5-8.1-0.6c-3.3-0.1-4.8,1.8-9.2,4.3c-4.4,2.4-12.4,7-14.9,12.3c-2.6,5.2-3.6,12.2-5.8,15.7
		C1754.8,207.5,1758.6,212.1,1767.7,213.9z"/>
</g>
</svg>
