<?xml version="1.0" encoding="utf-8"?>
<!-- Generator: Adobe Illustrator 25.1.0, SVG Export Plug-In . SVG Version: 6.00 Build 0)  -->
<svg version="1.1" id="Layer_1" xmlns="http://www.w3.org/2000/svg" xmlns:xlink="http://www.w3.org/1999/xlink" x="0px" y="0px"
	 viewBox="0 0 512 512" style="enable-background:new 0 0 512 512;" xml:space="preserve">
<style type="text/css">
	.st0{fill:#1ABC9C;}
</style>
<path class="st0" d="M310.5,396.6c6.8-10.3,10.8-22.6,10.8-35.9c0-36-29.3-65.3-65.3-65.3s-65.3,29.3-65.3,65.3
	c0,13.3,4,25.6,10.8,35.9c-25.9,10.7-44,36.4-44,65.4v40c0,5.5,4.5,10,10,10h176.9c5.5,0,10-4.5,10-10v-40
	C354.5,433.1,336.4,407.4,310.5,396.6L310.5,396.6z M256,315.4c25,0,45.3,20.3,45.3,45.3S281,406,256,406s-45.3-20.3-45.3-45.3
	C210.7,335.8,231,315.4,256,315.4z M334.4,492H177.5v-30c0-23.4,16.5-43.9,39-49.3c11,8.4,24.6,13.3,39.5,13.3
	c14.8,0,28.5-5,39.5-13.3c22.5,5.4,39,25.9,39,49.3L334.4,492L334.4,492z"/>
<g>
	<path class="st0" d="M203.6,165.2c0-0.5,0-0.9,0-1.4c0-0.9-0.1-1.8-0.2-2.7c-2.4-26.8-22.4-48.6-48.3-53.8l0,0
		c-3.8-0.8-7.7-1.2-11.7-1.2H60.2c-0.6,0-1.1,0-1.7,0C26.2,107.1,0,133.9,0,166.4v0.3c0,32.6,26.2,59.3,58.6,60.2c0.5,0,1.1,0,1.7,0
		h24l57.3,36.7c1.6,1,3.5,1.6,5.4,1.6c1.6,0,3.2-0.4,4.7-1.2c3.2-1.7,5.2-5,5.3-8.6l0.6-30.1l0,0c24.8-6.1,43.7-27.8,45.9-53.5l0,0
		c0.1-0.8,0.1-1.7,0.2-2.5c0-0.4,0-0.7,0-1.1c0-0.5,0-0.9,0-1.3v-0.3C203.6,166,203.6,165.6,203.6,165.2z M146.8,206.8
		c-5.1,0.4-9,4.7-9.1,9.8l-0.2,10.4l-0.2,10.2l-16-10.2l-28.8-18.4c-1.6-1-3.5-1.6-5.4-1.6h-27c-22.3,0-40.4-18.1-40.4-40.4
		s18.1-40.4,40.4-40.4h83.1c22.3,0,40.4,18.1,40.4,40.4C183.6,187.4,167.4,205,146.8,206.8z"/>
	<path class="st0" d="M55,156.6c-5.5,0-10,4.5-10,10s4.5,10,10,10s10-4.5,10-10l0,0C65,161,60.5,156.6,55,156.6L55,156.6z"/>
	<path class="st0" d="M99.2,156.6c-5.5,0-10,4.5-10,10s4.5,10,10,10s10-4.5,10-10l0,0C109.2,161,104.7,156.6,99.2,156.6L99.2,156.6z
		"/>
	<path class="st0" d="M143.9,176.6c5.5,0,10-4.5,10-10l0,0c0-5.5-4.5-10-10-10s-10,4.5-10,10S138.4,176.6,143.9,176.6z"/>
</g>
<g id="XMLID_1411_">
	<g>
		<g>
			<g>
				<path class="st0" d="M509.9,157.3c-13.5-23.2-32.7-43.2-55.3-58c-5.2-3.4-10.7-6.5-16.4-9.4c-14.5-7.1-28.2-11.3-37.1-13.7
					l-1.5-0.4h-0.1c-6.5-1.5-12.5-2.6-18.6-3.2c-1.5-0.2-2.7-0.2-3.6-0.2l-0.6,0c-5.3,0.3-10.2,3.1-13.2,7.5L324,141.6l-0.4,0.8
					C302,183,310,233.6,343.2,265.5c0.3,0.3,0.6,0.5,0.8,0.8l0.5,0.5l0.9,0.6c1,0.6,1.9,1.1,2.9,1.5c12.3,5,25.3,7.5,38.5,7.5
					c35.3,0,67.8-17.6,86.9-47.2l35.6-55C512.9,169.1,513.1,162.4,509.9,157.3z M456.2,217.6c-15.5,23.8-42.1,37.5-69.5,37.5
					c-9.6,0-19.4-1.7-28.7-5.2l-0.8-0.3l-0.6-0.6c-27.1-27.4-31.5-70.7-10.6-102.9l34-52.4l2.5,0.4c43.2,6.4,83,32.2,106.4,69
					l1.4,2.2L456.2,217.6z"/>
			</g>
		</g>
	</g>
</g>
<g id="XMLID_1535_">
	<g>
		<path class="st0" d="M397.3,153.9c0.3,1.3,1.1,2.4,2.1,3.1c1.1,0.7,2.4,1,3.7,0.7c2.7-0.6,4.4-3.2,3.8-5.9
			c-3.2-15-18-24.6-33-21.4c-2.7,0.6-4.4,3.2-3.8,5.9s3.2,4.4,5.9,3.8C385.7,138,395.2,144.2,397.3,153.9L397.3,153.9z"/>
	</g>
	<g>
		<path class="st0" d="M404,161.9c-1.8,0.4-3.7,0.2-5.4-0.5c-0.5-0.2-1-0.5-1.5-0.8c-2.1-1.3-3.5-3.4-4-5.8l0,0
			c-0.8-3.6-2.9-6.6-6-8.6s-6.7-2.7-10.3-1.9c-2.4,0.5-4.9,0.1-6.9-1.3c-2.1-1.3-3.5-3.4-4-5.8c-1.1-5,2.1-9.9,7.1-10.9
			c17.3-3.7,34.4,7.4,38.1,24.7C412.2,155.9,409,160.8,404,161.9z"/>
	</g>
</g>
<g id="XMLID_1536_">
	<g>
		<path class="st0" d="M458.3,197.1c-1.9,0.4-3.7,0.2-5.4-0.5c-2.7-1.1-4.9-3.5-5.5-6.6c-0.8-3.6-2.9-6.6-6-8.6s-6.7-2.7-10.3-1.9
			c-2.4,0.5-4.9,0.1-6.9-1.3c-1-0.7-1.9-1.5-2.6-2.5s-1.2-2.1-1.4-3.3c-1.1-5,2.1-9.8,7.1-10.9c17.3-3.7,34.4,7.4,38.1,24.7
			C466.4,191.1,463.2,196,458.3,197.1z"/>
	</g>
</g>
<g id="XMLID_1541_">
	<g>
		<path class="st0" d="M428.1,208.7c-1-1.8-3-3-5.1-2.9c-10.9,0.2-21.5-2.8-30.7-8.8s-16.3-14.4-20.5-24.5c-0.8-1.9-2.6-3.3-4.7-3.4
			c-2.1-0.2-4.1,0.8-5.2,2.6c-5.5,8.8-7.2,19.2-5,29.3c2.3,10.1,8.3,18.8,17,24.5c8.7,5.6,19.1,7.6,29.3,5.6
			c10.1-2.1,18.9-7.9,24.7-16.5C429,212.8,429.1,210.6,428.1,208.7z M385.1,217c-1.5-0.6-2.9-1.4-4.3-2.3c-7.5-4.9-11.9-13.2-12-22
			c4.6,5.9,10.1,11,16.5,15.1s13.2,7.1,20.5,8.9C399.2,219.6,391.7,219.7,385.1,217z"/>
	</g>
</g>
<g>
	<g>
		<g>
			<path class="st0" d="M296.4,27.9C296.3,12.5,283.8,0,268.3,0h-0.1l-24.8,0.1c-7.5,0-14.5,3-19.8,8.3s-8.2,12.4-8.2,19.8
				l0.7,184.4c0,2.7,0.9,5.3,2.4,7.5l27.4,39.5c2.5,3.5,6.5,5.7,10.8,5.7l0,0c4.3,0,8.4-2.2,10.8-5.8l27.1-39.8
				c1.5-2.2,2.3-4.8,2.3-7.5L296.4,27.9z M243.5,18.9l24.8-0.1c5.1,0,9.2,4.1,9.2,9.2v9.7l-43.2,0.2v-9.7
				C234.3,23.1,238.5,18.9,243.5,18.9z M278.2,201.7l-43.2,0.2l-0.6-147.7l43.2-0.2L278.2,201.7z M273.2,218.1l-16.4,24l-16.6-23.9
				L273.2,218.1z"/>
		</g>
	</g>
</g>
</svg>
