<?xml version="1.0" encoding="utf-8"?>
<!-- Generator: Adobe Illustrator 25.1.0, SVG Export Plug-In . SVG Version: 6.00 Build 0)  -->
<svg version="1.1" id="Capa_1" xmlns="http://www.w3.org/2000/svg" xmlns:xlink="http://www.w3.org/1999/xlink" x="0px" y="0px"
	 viewBox="0 0 512 512" style="enable-background:new 0 0 512 512;" xml:space="preserve">
<style type="text/css">
	.st0{fill:#1ABC9C;}
</style>
<g>
	<g>
		<path class="st0" d="M475.4,390.2l15.5-19.8c0,0,0-0.1,0.1-0.1c13.5-16.7,21-37.8,21-59.3c0-52-42.3-94.3-94.3-94.3
			S323.3,259,323.3,311c0,21.6,7.4,42.6,21,59.3c0.1,0.2,0.2,0.4,0.4,0.5l15.1,19.4c-22.1,10.5-36.6,32.9-36.6,57.8
			c0,35.3,28.7,64,64,64H448c35.3,0,64-28.7,64-64C512,423,497.6,400.6,475.4,390.2z M343.3,311c0-41,33.3-74.3,74.3-74.3
			s74.3,33.3,74.3,74.3c0,17.1-5.9,33.7-16.7,46.9c-0.1,0.1-0.2,0.3-0.3,0.4l-57.3,73.5L361,359.2c-0.2-0.3-0.4-0.6-0.7-0.9
			C349.4,345,343.3,328.2,343.3,311z M448,492h-60.8c-24.3,0-44-19.7-44-44c0-18.7,11.8-35.3,29.3-41.5l37.2,47.6
			c1.9,2.4,4.8,3.8,7.9,3.8c3.1,0,6-1.4,7.9-3.8l37.2-47.6c17.6,6.2,29.3,22.8,29.3,41.5C492,472.3,472.3,492,448,492z"/>
	</g>
</g>
<g>
	<g>
		<path class="st0" d="M448,0h-60.8c-35.3,0-64,28.7-64,64c0,19.6,8.9,37.2,22.8,49L238,207c-4.2,3.6-4.6,9.9-1,14.1
			c2,2.3,4.8,3.4,7.6,3.4c2.3,0,4.7-0.8,6.6-2.5l113.1-98.4c7.2,2.8,14.9,4.3,23,4.3H448c35.3,0,64-28.7,64-64
			C512,28.7,483.3,0,448,0z M448,108h-60.8c-24.3,0-44-19.7-44-44s19.7-44,44-44H448c24.3,0,44,19.7,44,44S472.3,108,448,108z"/>
	</g>
</g>
<g>
	<g>
		<path class="st0" d="M262.1,387.3l-76.2-24.6c1.9-6,2.9-12.4,2.9-19c0-25-14.4-47.4-36.6-57.8l15.5-19.8c0,0,0-0.1,0.1-0.1
			c13.5-16.7,21-37.8,21-59.3c0-52-42.3-94.3-94.3-94.3S0.1,154.6,0.1,206.6c0,21.6,7.4,42.6,21,59.3c0.1,0.2,0.2,0.4,0.4,0.5
			l15.1,19.4C14.4,296.3,0,318.7,0,343.7c0,35.3,28.7,64,64,64h60.8c21.5,0,40.5-10.6,52.1-26.9l79.1,25.5c1,0.3,2.1,0.5,3.1,0.5
			c4.2,0,8.1-2.7,9.5-6.9C270.2,394.6,267.3,389,262.1,387.3z M20.1,206.6c0-41,33.3-74.3,74.3-74.3s74.3,33.3,74.3,74.3
			c0,17.1-5.9,33.7-16.7,46.9c-0.1,0.1-0.2,0.3-0.3,0.4l-57.3,73.5l-56.6-72.5c-0.2-0.3-0.4-0.6-0.7-0.9
			C26.1,240.7,20.1,223.9,20.1,206.6z M124.8,387.7H64c-24.3,0-44-19.7-44-44c0-18.7,11.8-35.3,29.3-41.5l37.2,47.6
			c1.9,2.4,4.8,3.8,7.9,3.8c3.1,0,6-1.4,7.9-3.8l37.2-47.6c17.6,6.2,29.3,22.8,29.3,41.5C168.8,367.9,149,387.7,124.8,387.7z"/>
	</g>
</g>
<g>
	<g>
		<path class="st0" d="M442.1,54h-49c-5.5,0-10,4.5-10,10s4.5,10,10,10h49c5.5,0,10-4.5,10-10S447.6,54,442.1,54z"/>
	</g>
</g>
<g>
	<g>
		<path class="st0" d="M94.4,165.5c-23.5,0-42.6,19.1-42.6,42.6c0,23.5,19.1,42.6,42.6,42.6c23.5,0,42.6-19.1,42.6-42.6
			S117.9,165.5,94.4,165.5z M94.4,230.7c-12.5,0-22.6-10.2-22.6-22.6s10.2-22.6,22.6-22.6s22.6,10.2,22.6,22.6
			S106.8,230.7,94.4,230.7z"/>
	</g>
</g>
<g>
	<g>
		<path class="st0" d="M417.6,269.8c-23.5,0-42.6,19.1-42.6,42.6c0,23.5,19.1,42.6,42.6,42.6c23.5,0,42.6-19.1,42.6-42.6
			C460.2,288.9,441.1,269.8,417.6,269.8z M417.6,335.1c-12.5,0-22.6-10.2-22.6-22.6s10.2-22.6,22.6-22.6c12.5,0,22.6,10.2,22.6,22.6
			C440.2,324.9,430.1,335.1,417.6,335.1z"/>
	</g>
</g>
</svg>
