<?xml version="1.0" encoding="utf-8"?>
<!-- Generator: Adobe Illustrator 25.1.0, SVG Export Plug-In . SVG Version: 6.00 Build 0)  -->
<svg version="1.1" id="Ebene_1" xmlns="http://www.w3.org/2000/svg" xmlns:xlink="http://www.w3.org/1999/xlink" x="0px" y="0px"
	 viewBox="0 0 512 512" style="enable-background:new 0 0 512 512;" xml:space="preserve">
<style type="text/css">
	.st0{fill:#1ABC9C;}
</style>
<path class="st0" d="M165.1,322.4c14.8-14.8,14.8-38.9,0-53.8c-7.2-7.2-16.7-11.1-26.9-11.1c-5.9,0-11.5,1.3-16.7,3.8
	C103.5,235.5,94,205.3,94,173.5C94,92.1,157.6,24.7,238.8,20c5.5-0.3,9.7-5.1,9.4-10.6c-0.3-5.5-5.1-9.7-10.6-9.4
	C145.9,5.3,74,81.5,74,173.5c0,36.7,11.2,71.6,32.5,101.2c-9.7,14.8-8.1,34.8,4.9,47.8c7.2,7.2,16.7,11.1,26.9,11.1
	S157.9,329.6,165.1,322.4z M125.5,282.8c3.5-3.5,8.1-5.3,12.7-5.3c4.6,0,9.2,1.8,12.7,5.3c7,7,7,18.4,0,25.5c-7,7-18.4,7-25.5,0
	C118.5,301.3,118.5,289.8,125.5,282.8z"/>
<path class="st0" d="M402,346.7c-6.3,0-12.3,1.6-17.4,4.5c-4.6-14.5-18.2-25.1-34.1-25.1c-10.1,0-19.3,4.2-25.8,11
	c-1.8-1.9-3.8-3.6-6-5c23.1-10.3,43.8-25.7,60.6-45.1c27.2-31.5,42.2-71.9,42.2-113.6c0-36.7-11.2-71.6-32.5-101.2
	c9.7-14.8,8.1-34.8-4.9-47.8c-14.8-14.8-38.9-14.8-53.8,0c-14.8,14.8-14.8,38.9,0,53.8c7.4,7.4,17.1,11.1,26.9,11.1
	c5.7,0,11.4-1.3,16.6-3.8c18.1,25.8,27.6,56.1,27.6,87.9c0,72.4-49.1,133.6-118.4,149.7v-53.9c39.7-14.6,66.8-53,66.8-95.8
	c0-56.3-45.8-102.1-102.1-102.1c-56.3,0-102.1,45.8-102.1,102.1c0,22.2,7,43.4,20.3,61.1c11.6,15.5,27.6,27.5,45.6,34.4v147.2
	l-12.6-20.6c-10.6-17.3-32.6-23-50.2-12.8c-16.7,9.7-23.2,30.8-14.8,48.3l37.3,75.4c1.7,3.5,5.3,5.6,9,5.6c1.5,0,3-0.3,4.4-1
	c5-2.5,7-8.5,4.5-13.4l-37.3-75.3c-3.9-8-0.9-17.8,6.8-22.2c8-4.6,18.3-1.9,23.1,5.9L213,457c2.3,3.8,6.9,5.6,11.2,4.4
	s7.3-5.1,7.3-9.6V222.2c0-8.7,7.1-15.8,15.8-15.8c8.7,0,15.8,7.1,15.8,15.8v39.6c0,0.1,0,0.1,0,0.2v150.2c0,5.5,4.5,10,10,10
	s10-4.5,10-10V362c0-8.7,7.1-15.8,15.8-15.8s15.8,7.1,15.8,15.8v53.9c0,5.5,4.5,10,10,10c5.5,0,10-4.5,10-10V362
	c0-8.7,7.1-15.8,15.8-15.8s15.8,7.1,15.8,15.8v54.6c0,5.5,4.5,10,10,10s10-4.5,10-10v-34.1c0-8.7,7.1-15.8,15.8-15.8
	s15.8,7.1,15.8,15.8V502c0,5.5,4.5,10,10,10s10-4.5,10-10V382.5C437.8,362.7,421.8,346.7,402,346.7z M344.6,64.2c-7-7-7-18.4,0-25.5
	c3.5-3.5,8.1-5.3,12.7-5.3s9.2,1.8,12.7,5.3c7,7,7,18.4,0,25.5C363,71.2,351.6,71.2,344.6,64.2z M165.7,173.5
	c0-45.3,36.8-82.1,82.1-82.1c45.3,0,82.1,36.8,82.1,82.1c0,31.9-18.7,60.7-46.8,74.1v-25.4c0-5.6-1.3-10.9-3.6-15.7
	c8.9-8.6,14.1-20.5,14.1-33c0-25.3-20.6-45.8-45.8-45.8c-25.3,0-45.8,20.6-45.8,45.8c0,12.2,5,23.9,13.5,32.4
	c-2.5,4.9-3.9,10.4-3.9,16.3v25C183.6,233.6,165.7,205.3,165.7,173.5z M229.1,191.4c-4.6-4.8-7.2-11.1-7.2-17.9
	c0-14.2,11.6-25.8,25.8-25.8c14.2,0,25.8,11.6,25.8,25.8c0,6.9-2.8,13.4-7.6,18.2c-5.5-3.4-11.9-5.3-18.7-5.3
	C240.7,186.4,234.5,188.2,229.1,191.4z"/>
</svg>
